<?xml version="1.0" encoding="UTF-8"?>
<svg version="1.1" xmlns="http://www.w3.org/2000/svg" width="960" height="1140">
<path d="M0 0 C1.07096924 0.50031738 1.07096924 0.50031738 2.16357422 1.01074219 C37.1371596 17.49301806 69.53994775 42.06060436 93 73 C93.85411654 74.07659499 94.70965764 75.15206091 95.56640625 76.2265625 C96.42041129 77.31681596 97.27330144 78.40794378 98.125 79.5 C98.89070312 80.4796875 99.65640625 81.459375 100.4453125 82.46875 C101.21488281 83.72171875 101.21488281 83.72171875 102 85 C100.61326455 89.16020635 97.73260054 90.20511513 94.125 92.3125 C66.38587604 109.118645 39.92386787 131.5286751 21 158 C20.3208252 158.93658447 20.3208252 158.93658447 19.62792969 159.89208984 C12.6755475 169.52528377 6.48680501 179.46347858 1 190 C0.43949951 191.07193604 0.43949951 191.07193604 -0.13232422 192.16552734 C-17.07291463 225.0281055 -24.62904219 261.7342727 -24.39111328 298.55224609 C-24.37499921 301.50014459 -24.3911063 304.44667296 -24.41015625 307.39453125 C-24.4668058 358.52842434 -8.40822736 411.94069401 24 452 C24.64066406 452.83015625 25.28132812 453.6603125 25.94140625 454.515625 C38.64153407 470.83336499 53.59640541 486.39287054 70 499 C70.97839844 499.78375 71.95679688 500.5675 72.96484375 501.375 C90.5823832 515.40823378 110.91254694 527.90555851 132 536 C131.40049933 542.42449974 129.40186604 548.08785371 127.1875 554.125 C126.79079102 555.21321045 126.39408203 556.3014209 125.98535156 557.42260742 C114.92486573 587.37561027 102.07471299 616.71410365 86.38037109 644.53613281 C85.0703788 646.8743787 83.78955296 649.22579252 82.51953125 651.5859375 C66.18244396 681.81420153 45.71566163 709.66461748 25 737 C24.5659082 737.57588867 24.13181641 738.15177734 23.68457031 738.74511719 C18.31166616 745.86906774 12.74804749 752.77216314 6.93359375 759.5390625 C5.27711555 761.4671381 3.66790355 763.41750236 2.08520508 765.40722656 C-3.906954 772.9134861 -10.38321774 779.74123989 -17.1875 786.5 C-17.73869507 787.04970459 -18.28989014 787.59940918 -18.85778809 788.16577148 C-26.8138668 796.08321446 -34.78849388 803.53536974 -44 810 C-45.04414062 810.76570313 -46.08828125 811.53140625 -47.1640625 812.3203125 C-79.88685976 835.80747841 -117.32087444 845.34935621 -157.28125 839.03125 C-182.6690582 834.64323377 -206.92778567 825.84092983 -230.8605957 816.52929688 C-253.89874937 807.57752935 -277.43007424 801.10760966 -302 798 C-303.53333984 797.80277344 -303.53333984 797.80277344 -305.09765625 797.6015625 C-349.83592412 792.94525895 -393.06204958 805.69349788 -434.3125 821.58251953 C-479.39418418 838.91198579 -525.59558427 851.5029085 -572.03222656 831.50537109 C-588.60049561 824.04075898 -603.58699749 813.17543919 -617 801 C-618.37865234 799.78376953 -618.37865234 799.78376953 -619.78515625 798.54296875 C-632.18319225 787.44101354 -644.67606429 775.79537898 -654.91796875 762.64453125 C-656.9482157 760.06577481 -659.06385432 757.59616521 -661.22241211 755.12548828 C-673.08396517 741.53313805 -683.65057386 726.89913084 -694.28564453 712.34228516 C-695.93274011 710.09189567 -697.58876638 707.84832802 -699.24609375 705.60546875 C-711.42048655 689.04323737 -722.74201257 671.81607583 -733 654 C-733.48194824 653.17000488 -733.96389648 652.34000977 -734.46044922 651.48486328 C-775.73703599 580.14308162 -805.45458298 500.75686181 -828.203125 335.50390625 C-828.20595238 334.83832136 -828.20877975 334.17273647 -828.21169281 333.48698235 C-828.2265518 329.9498953 -828.2358593 326.41284748 -828.24023438 322.87573242 C-828.24457253 320.03054656 -828.25830035 317.18567192 -828.28125 314.34057617 C-828.75068089 254.8481123 -817.9562049 195.81825115 -792 142 C-791.59990723 141.16936035 -791.19981445 140.3387207 -790.78759766 139.48291016 C-781.54144349 120.57923447 -770.34934898 102.28143813 -757 86 C-756.34 85.15050781 -755.68 84.30101562 -755 83.42578125 C-750.48432002 77.62640998 -745.62559237 72.22711774 -740.61328125 66.859375 C-738.80363688 64.87931569 -737.0809542 62.9078076 -735.38671875 60.8359375 C-733.4961634 58.5895493 -731.74077129 56.7389143 -729.5 54.875 C-726.4463989 52.28285727 -723.51250943 49.60010605 -720.61181641 46.83789062 C-712.89631063 39.53609116 -704.65591801 33.14649199 -696 27 C-695.39462402 26.56977539 -694.78924805 26.13955078 -694.16552734 25.69628906 C-669.99862646 8.70051633 -643.93480579 -3.61951816 -616 -13 C-615.22446777 -13.26296875 -614.44893555 -13.5259375 -613.64990234 -13.796875 C-589.68780763 -21.79349525 -564.14805929 -24.95109824 -539 -26 C-537.60974609 -26.06380859 -537.60974609 -26.06380859 -536.19140625 -26.12890625 C-494.11474646 -27.11353947 -451.91206948 -10.93587778 -413.0625 3.5 C-393.90533595 10.60213137 -374.54998763 17.49759339 -354.625 22.125 C-353.77035156 22.32528809 -352.91570312 22.52557617 -352.03515625 22.73193359 C-343.1194378 24.6585445 -335.38975661 24.21985721 -326.6015625 21.8671875 C-325.73528229 21.64231659 -324.86900208 21.41744568 -323.97647095 21.1857605 C-315.00668055 18.81454201 -306.18330046 16.0314762 -297.375 13.125 C-296.53593109 12.8508728 -295.69686218 12.57674561 -294.83236694 12.29431152 C-281.23825662 7.85180219 -267.76336704 3.10665294 -254.3125 -1.75 C-169.38643211 -32.38639017 -84.11967612 -39.65152222 0 0 Z " fill="#FFFFFF" transform="translate(828,298)"/>
<path d="M0 0 C1.05058594 0.00902344 2.10117187 0.01804688 3.18359375 0.02734375 C3.96863281 0.03894531 4.75367188 0.05054688 5.5625 0.0625 C7.19598223 3.32946445 6.76781811 6.93901208 6.80078125 10.53125 C6.81547203 11.82001289 6.81547203 11.82001289 6.83045959 13.1348114 C7.00490606 32.46753949 6.79735826 51.10554695 2.5625 70.0625 C2.34819336 71.0412207 2.13388672 72.01994141 1.91308594 73.02832031 C-1.2736009 87.18054961 -5.81064838 100.70110706 -11.4375 114.0625 C-11.74381348 114.79098145 -12.05012695 115.51946289 -12.36572266 116.27001953 C-24.02488754 143.4747376 -41.4591343 167.94699899 -61.328125 189.734375 C-63.19425567 191.79403033 -65.00819788 193.88638895 -66.8125 196 C-73.73261785 203.9316432 -81.33643868 211.34588402 -89.4375 218.0625 C-89.9207373 218.47016602 -90.40397461 218.87783203 -90.90185547 219.29785156 C-127.03835994 249.67031762 -169.63872879 270.4124217 -217.4375 270.125 C-218.89452971 270.11997576 -220.3515611 270.11541449 -221.80859375 270.11132812 C-225.3515977 270.10039388 -228.89453797 270.08318 -232.4375 270.0625 C-244.84765764 232.83202707 -225.79437575 180.15547916 -209.4375 147.0625 C-208.89657715 145.96204346 -208.89657715 145.96204346 -208.34472656 144.83935547 C-200.59489155 129.24568475 -191.16070141 114.76989476 -180.4375 101.0625 C-179.79425781 100.22589844 -179.15101563 99.38929687 -178.48828125 98.52734375 C-173.92625404 92.68831906 -169.01384609 87.24190304 -163.97265625 81.8203125 C-161.99713751 79.67128904 -160.10345636 77.50242926 -158.25 75.25 C-155.00274819 71.42484744 -151.26329603 68.29289069 -147.4375 65.0625 C-146.53515625 64.26070313 -145.6328125 63.45890625 -144.703125 62.6328125 C-108.12465523 30.38012365 -49.6938951 -0.55835837 0 0 Z " fill="#FFFFFF" transform="translate(713.4375,-0.0625)"/>
</svg>
